# xmcd
#
# Track frame offsets: 
#        150
#        16374
#        35473
#        53415
#        71386
#        87435
#        101459
#        120232
#        139019
#        154025
#        171671
#        190189
#        194758
#        210802
#
# Disc length: 3048 seconds
#
# Revision: 0
# Processed by: cddbd v1.5.2PL0 Copyright (c) Steve Scherf et al.
# Submitted via: ExactAudioCopy v0.95b3
#
DISCID=b40be60e
DTITLE=Emilia - Små Ord Av Kärlek
DYEAR=2007
DGENRE=Pop
TTITLE0=Var minut
TTITLE1=En sång om kärleken
TTITLE2=Lär mig att älska
TTITLE3=Inget svar
TTITLE4=Det är inte det du säger
TTITLE5=Ord som bara du får höra
TTITLE6=Jeg ser det klart
TTITLE7=Sommardag
TTITLE8=Du är
TTITLE9=Säg du är säker
TTITLE10=Fotspor i snön
TTITLE11=Små ord av kärlek
TTITLE12=Var minut (remix)
TTITLE13=Det är inte det du säger (Peo de Pitte Nightshift remix)
EXTD=
EXTT0=
EXTT1=
EXTT2=
EXTT3=
EXTT4=
EXTT5=
EXTT6=
EXTT7=
EXTT8=
EXTT9=
EXTT10=
EXTT11=
EXTT12=
EXTT13=
PLAYORDER=
